# xmcd CD database file
#
# Track frame offsets:
#	150
#	22653
#	68925
#	103731
#	136907
#	152594
#	178861
#	207497
#	235600
#	267083
#	295799
#
# Disc length: 4240 seconds
#
# Revision: 2
# Processed by: cddbd v1.4b41PL1 Copyright (c) Steve Scherf et al.
# Submitted via: Feurio! 1.50.2ß - http://www.feurio.com
#
DISCID=93108e0b
DTITLE=Chet Baker - White Blues
DYEAR=1900
DGENRE=
TTITLE0=White Blues
TTITLE1=´Round Midnight
TTITLE2=Blues In The Closet
TTITLE3=Swift Shifting
TTITLE4=Somewhere Over The Rainbow
TTITLE5=Caravelle
TTITLE6=Dolphin Dance
TTITLE7=Ellen And David
TTITLE8=Star Eyes
TTITLE9=Well You Needn´t
TTITLE10=These Foolish Things
EXTD=
EXTT0=
EXTT1=
EXTT2=
EXTT3=
EXTT4=
EXTT5=
EXTT6=
EXTT7=
EXTT8=
EXTT9=
EXTT10=
PLAYORDER=
